<?xml version="1.0" encoding="UTF-8"?>

<svg xmlns="http://www.w3.org/2000/svg" version="1.1"
	width="297mm"
	height="210mm"
	viewBox="0 0 297 210">
	<!-- Working space 0 0 297 210 -->
	<defs>
		<radialGradient
			id="radialGradient3661"
			gradientUnits="userSpaceOnUse"
			cy="29.149"
			cx="282.65"
			gradientTransform="matrix(.14777 .23089 -.24680 .15795 -26.318 -62.617)"
			r="19.571">
				<stop stop-color="#71b2f8" offset="0"/>
				<stop stop-color="#002795" offset="1"/>
		</radialGradient>
		<radialGradient
			id="radialGradient3817"
			gradientUnits="userSpaceOnUse"
			cy="33.9"
			cx="270.58"
			gradientTransform="matrix(.26631 .065024 -.17931 .73438 -60.668 -36.938)"
			r="19.571">
				<stop stop-color="#ff6d0f" offset="0"/>
				<stop stop-color="#ff1000" offset="1"/>
		</radialGradient>
	</defs>
	<!-- Set display:none to hide FreeCAD Logo -->
	<g
		style="display:inline"
		id="freecad-logo"
		transform="translate(271, 185) scale(1)"
		fill-rule="evenodd"
		stroke-width=".45621">
		<path d="m0.22811 0.22835v13.256h2.9558v-5.1876h2.09v-2.0452h-2.09v-2.2075h5.1486v-3.8087l-8.1044-0.0075z"
			stroke="#370700"
			fill="url(#radialGradient3817)"/>
		<path d="m13.386 4.1792-1.7193 0.98645-0.75925-0.26348-0.72439-1.8513-1.1395 0.05988-0.51976 1.9144-0.72743 0.34835-1.8143-0.79367-0.76632 0.85156 0.98645 1.7193-0.26957 0.75702-1.8513 0.72439 0.065967 1.1417 1.9144 0.51976 0.34835 0.72743-0.79976 1.8121 0.85156 0.76632 1.7193-0.98645 0.76311 0.27179 0.7183 1.8491 1.1478-0.06375 0.51367-1.9166 0.72743-0.34835 1.8182 0.80198 0.76632-0.85156-0.98645-1.7193 0.2657-0.76533 1.8491-0.7183-0.05766-1.1456-1.9166-0.51367-0.34835-0.72743 0.7959-1.8204-0.85156-0.76632zm-2.5751 2.8195 0.35295 0.20478 0.30579 0.27725 0.24481 0.33087 0.17611 0.36787 0.10354 0.39656 0.01715 0.4064-0.0587 0.4063-0.13396 0.38571-0.2131 0.35681-0.26894 0.30192-0.33087 0.24481-0.36787 0.17611-0.39656 0.10354-0.40863 0.02325-0.4063-0.0587-0.38571-0.13396-0.35681-0.2131-0.2997-0.27503-0.24703-0.32478-0.17611-0.36787-0.10132-0.40264-0.02324-0.40863 0.05869-0.4063 0.13396-0.38571 0.21087-0.35072 0.27116-0.30801 0.33087-0.24481 0.36787-0.17611 0.40264-0.10132 0.40641-0.01715 0.4063 0.05869 0.38571 0.13396z" 
		stroke="#000137"
		fill="url(#radialGradient3661)"/>
	</g>
<g id="Ortho_0_0"
   transform="rotate(90,157.38,140.643) translate(157.38,140.643) scale(1,1)"
  >
<g   stroke="rgb(0, 0, 0)"
   stroke-width="0.35"
   stroke-linecap="butt"
   stroke-linejoin="miter"
   fill="none"
   transform="scale(1,-1)"
  >
<path id= "1" d=" M 28.4282 33.2391 L 21.5 37.2391 " />
</g>
<g   stroke="rgb(0, 0, 0)"
   stroke-width="0.35"
   stroke-linecap="butt"
   stroke-linejoin="miter"
   fill="none"
   transform="scale(1,-1)"
  >
<path d="M15,25.9808 L15.7278,27.2413  L16.4464,28.486  L17.1468,29.6992  L17.8202,30.8656  L18.4582,31.9706  L19.0527,33.0002  L19.5962,33.9416  L20.0819,34.7829  L20.5037,35.5135  L20.8563,36.1242  L21.1352,36.6073  L21.337,36.9568  L21.4591,37.1683  L21.5,37.2391 " /><path d="M21.9282,21.9808 L22.656,23.2413  L23.3746,24.486  L24.075,25.6992  L24.7484,26.8656  L25.3864,27.9706  L25.9809,29.0002  L26.5244,29.9416  L27.0101,30.7829  L27.4319,31.5135  L27.7845,32.1242  L28.0634,32.6073  L28.2652,32.9568  L28.3873,33.1683  L28.4282,33.2391 " /><path id= "3" d=" M 15 25.9808 L 0 0 " />
<path id= "4" d=" M 0 0 L 8 0 " />
<path id= "5" d=" M 8 -2.14359 L 8 0 " />
<path id= "6" d=" M 21.9282 21.9808 L 8 -2.14359 " />
<path id= "7" d=" M 0 0 L 6.9282 -4 " />
<path id= "8" d=" M 8 -2.14359 L 6.9282 -4 " />
<path id= "9" d=" M 0 -10 L 0 0 " />
<path id= "10" d=" M 8 -10 L 8 -2.14359 " />
<path id= "11" d=" M 8 -10 L -2 -10 " />
<path d="M8,-51 L8,-51.4479  L8,-51.8901  L8,-52.3211  L8,-52.7355  L8,-53.1281  L8,-53.494  L8,-53.8284  L8,-54.1273  L8,-54.3869  L8,-54.6039  L8,-54.7755  L8,-54.8997  L8,-54.9748  L8,-55 " /><path id= "13" d=" M 8 -14 L 8 -51 " />
<path d="M8,-10 L8,-10.0252  L8,-10.1003  L8,-10.2245  L8,-10.3961  L8,-10.6131  L8,-10.8727  L8,-11.1716  L8,-11.506  L8,-11.8719  L8,-12.2645  L8,-12.6789  L8,-13.1099  L8,-13.5521  L8,-14 " /><path d="M-2,-51 L-2,-51.4479  L-2,-51.8901  L-2,-52.3211  L-2,-52.7355  L-2,-53.1281  L-2,-53.494  L-2,-53.8284  L-2,-54.1273  L-2,-54.3869  L-2,-54.6039  L-2,-54.7755  L-2,-54.8997  L-2,-54.9748  L-2,-55 " /><path d="M-2,-10 L-2,-10.0252  L-2,-10.1003  L-2,-10.2245  L-2,-10.3961  L-2,-10.6131  L-2,-10.8727  L-2,-11.1716  L-2,-11.506  L-2,-11.8719  L-2,-12.2645  L-2,-12.6789  L-2,-13.1099  L-2,-13.5521  L-2,-14 " /><path id= "17" d=" M -2 -14 L -2 -51 " />
<path id= "18" d=" M 8 -55 L -2 -55 " />
</g>
</g>



<g id="Ortho_0_1"
   transform="rotate(0,157.38,61.7145) translate(157.38,61.7145) scale(1,1)"
  >
<g   stroke="rgb(0, 0, 0)"
   stroke-width="0.35"
   stroke-linecap="butt"
   stroke-linejoin="miter"
   fill="none"
   transform="scale(1,-1)"
  >
<path d="M25.9808 -13 A13 11.2583 -90 0 1 25.9808 13" />
<path id= "2" d=" M 25.9808 -13 L 0 -13 " />
<path id= "3" d=" M 25.9808 13 L 0 13 " />
<path id= "4" d=" M 0 13 L 0 -13 " />
<path d="M12.1244 -2.44929e-16 A4 3.4641 -90 0 1 8.66025 4" />
<path d="M8.66025 4 A4 3.4641 -90 0 1 8.66025 -4" />
<path d="M8.66025 -4 A4 3.4641 -90 0 1 12.1244 -2.44929e-16" />
<path d="M32.476 -4.59243e-16 A7.5 6.49519 -90 0 1 25.9808 7.5" />
<path d="M25.9808 7.5 A7.5 6.49519 -90 0 1 25.9808 -7.5" />
<path d="M25.9808 -7.5 A7.5 6.49519 -90 0 1 32.476 -4.59243e-16" />
<path d="M8.12436 -2.44929e-16 A4 3.4641 -90 0 1 6.66025 3.26599" />
<path d="M6.66025 -3.26599 A4 3.4641 -90 0 1 8.12436 -2.44929e-16" />
<path d="M28.476 -4.59243e-16 A7.5 6.49519 -90 0 1 23.9808 7.13559" />
<path d="M23.9808 -7.13559 A7.5 6.49519 -90 0 1 28.476 -4.59243e-16" />
<path id= "15" d=" M 0 13 L -10 13 " />
<path id= "16" d=" M -10 -13 L 0 -13 " />
<path id= "17" d=" M -10 14 L -10 -14 " />
<path d="M-10 14 A4 4 0 0 1 -14 18" /><path id= "19" d=" M -51 18 L -14 18 " />
<path d="M-51 18 A4 4 0 0 1 -55 14" /><path id= "21" d=" M -55 -14 L -55 14 " />
<path d="M-51 -18 A4 4 0 0 0 -55 -14" /><path d="M-10 -14 A4 4 0 0 0 -14 -18" /><path id= "24" d=" M -14 -18 L -51 -18 " />
<path d="M-30 -9 A9 9 0 0 1 -30 9" /><path id= "26" d=" M -30 9 L -40 9 " />
<path d="M-40 9 A9 9 0 0 1 -40 -9" /><path id= "28" d=" M -30 -9 L -40 -9 " />
</g>
</g>



<g transform="translate(10,10) rotate(0)">
<text id="Annotation"
 font-family="Sans"
 font-size="7"
 fill="#000000">
<tspan x="0" dy="1em"></tspan>
</text>
</g>



</svg>

